<?xml version="1.0" encoding="UTF-8"?>
<svg version="1.1" xmlns="http://www.w3.org/2000/svg" width="500" height="500">
<path d="M0 0 C3 1 3 1 4.38769531 3.28369141 C4.86303711 4.29608887 5.33837891 5.30848633 5.828125 6.3515625 C6.37299561 7.49737793 6.91786621 8.64319336 7.47924805 9.82373047 C8.069575 11.09078477 8.65982343 12.35787565 9.25 13.625 C9.86844179 14.93297781 10.48800884 16.24042412 11.10864258 17.54736328 C12.41374559 20.29732364 13.71428142 23.04937983 15.01220703 25.80273438 C17.87434036 31.86132881 20.80639006 37.8859413 23.73461914 43.91278076 C28.27335423 53.25916779 32.78197905 62.61958616 37.25 72 C41.83807743 81.62825179 46.5064745 91.21670519 51.18258667 100.80239868 C54.79123567 108.2002125 58.39642954 115.5997112 62 123 C62.34297119 123.70421082 62.68594238 124.40842163 63.03930664 125.13397217 C65.09524083 129.35700295 67.14363185 133.58361172 69.1875 137.8125 C69.68628662 138.83714355 70.18507324 139.86178711 70.69897461 140.91748047 C71.14249268 141.83803223 71.58601074 142.75858398 72.04296875 143.70703125 C72.42477295 144.4956958 72.80657715 145.28436035 73.19995117 146.09692383 C74 148 74 148 74 150 C75.03495165 150.05383063 76.0699033 150.10766127 77.13621712 150.16312313 C87.31315585 150.71396007 97.43187578 151.54686108 107.56982422 152.58227539 C109.14376827 152.74036086 110.71774392 152.89813205 112.29174805 153.05561829 C115.64039514 153.39133042 118.98881412 153.72920259 122.33706284 154.06886482 C127.63167264 154.60596273 132.92677917 155.13804971 138.22195435 155.66954041 C146.58687792 156.50973533 154.95146608 157.35321798 163.31591332 158.19814056 C178.33148765 159.71484923 193.34754526 161.22675753 208.36385739 162.73614305 C213.62931085 163.2655518 218.89458506 163.79670073 224.15971923 164.32927525 C227.42220142 164.65902814 230.68480243 164.98759378 233.94743347 165.31587029 C235.4620451 165.46853447 236.97660451 165.62171776 238.49110794 165.77545166 C240.55374174 165.98476462 242.61655057 166.19225997 244.67941284 166.39930725 C245.83446257 166.51599793 246.98951229 166.63268862 248.17956352 166.75291538 C251.02621919 167.04363543 251.02621919 167.04363543 254 167 C254 170 254 170 252.65417671 171.43463326 C252.0154154 171.94952246 251.37665409 172.46441166 250.71853638 172.99490356 C245.04943624 177.75125685 239.79777683 182.91849774 234.50341797 188.08154297 C233.36604868 189.18803077 232.22863177 190.29446962 231.09117126 191.40086365 C220.77038435 201.44921846 210.50550826 211.5546081 200.25691032 221.67652702 C193.37844413 228.4679598 186.48301278 235.24020408 179.54296875 241.96875 C173.46783248 247.85878538 167.42710798 253.78167573 161.42525017 259.74639809 C158.25402415 262.89579554 155.06865874 266.02681901 151.84154892 269.11901474 C148.80652277 272.02831134 145.81999801 274.97995533 142.86360359 277.96905708 C141.77631094 279.05274135 140.67281512 280.12046451 139.55209541 281.16954231 C133.59048555 286.64025647 133.59048555 286.64025647 130.74445987 293.97966433 C130.76463931 298.41581219 131.58218847 302.65897763 132.55528903 306.97371316 C133.18880407 309.86026934 133.57255393 312.77065183 133.97286987 315.69750977 C134.31174398 317.86266729 134.65405646 320.02728901 134.99951172 322.19140625 C135.18845001 323.39243484 135.37738831 324.59346344 135.572052 325.83088684 C136.08218421 329.06944438 136.59521171 332.30752573 137.10964346 335.54540253 C137.65468702 338.98057345 138.19589922 342.41634819 138.73757935 345.85205078 C139.76420823 352.35991594 140.79424164 358.86723736 141.82552254 365.37436676 C142.98477714 372.6901581 144.13995527 380.00659125 145.29489493 387.3230648 C147.10786004 398.80693948 148.92310519 410.29045283 150.74169922 421.7734375 C150.93098936 422.97010544 151.1202795 424.16677338 151.31530571 425.39970398 C152.26031221 431.36615486 153.21362407 437.33111227 154.18121338 443.29394531 C154.36854097 444.45181549 154.55586857 445.60968567 154.74887276 446.80264282 C155.1028458 448.98752405 155.45875047 451.17209352 155.81690788 453.35629272 C155.97305124 454.32104523 156.1291946 455.28579773 156.29006958 456.27978516 C156.49661006 457.544431 156.49661006 457.544431 156.70732307 458.83462524 C157 461 157 461 157 464 C152.4865838 463.35792858 148.68422188 461.60602489 144.62109375 459.640625 C143.90539719 459.30011612 143.18970062 458.95960724 142.45231628 458.60877991 C140.91368531 457.87602801 139.37625042 457.14076027 137.83990479 456.40322876 C134.58379526 454.84019527 131.32194998 453.28931172 128.06036377 451.73774719 C126.40508069 450.95018833 124.75009294 450.16200844 123.09539795 449.37321472 C115.95986683 445.97314259 108.79902539 442.63067542 101.625 439.3125 C99.35934168 438.26309277 97.09371668 437.21361359 94.828125 436.1640625 C93.70986328 435.64618164 92.59160156 435.12830078 91.43945312 434.59472656 C85.41394014 431.80095521 79.39390283 428.99547528 73.375 426.1875 C72.76126526 425.90125763 72.14753052 425.61501526 71.51519775 425.32009888 C63.37189826 421.52116191 55.237295 417.70414379 47.11178589 413.86729431 C43.46562225 412.14596637 39.81743417 410.42930345 36.16357422 408.72436523 C34.75479634 408.06642862 33.34610363 407.4083096 31.9375 406.75 C30.91464401 406.27198692 30.91464401 406.27198692 29.87112427 405.78431702 C25.64766069 403.80099251 21.47204774 401.74019581 17.3125 399.625 C16.31669922 399.13290039 15.32089844 398.64080078 14.29492188 398.13378906 C12.50562346 397.24789254 10.72910709 396.33538463 8.97070312 395.38964844 C5.79879765 393.84800334 3.36646896 392.76939303 -0.17578125 393.3671875 C-2.89867916 394.39697172 -5.41082817 395.66676973 -8 397 C-9.30797839 397.61841763 -10.61876043 398.23092522 -11.93164062 398.83886719 C-15.80248122 400.63519324 -19.65581716 402.46600284 -23.50549316 404.30718994 C-27.76602224 406.34446716 -32.03152615 408.37127535 -36.296875 410.3984375 C-37.1409491 410.79980927 -37.98502319 411.20118103 -38.85467529 411.61471558 C-45.63112532 414.8335169 -52.43107402 417.99704726 -59.25 421.125 C-69.15316145 425.67036228 -79.01962919 430.28973523 -88.875 434.9375 C-100.73899452 440.53229258 -112.61699402 446.09455682 -124.52270508 451.60009766 C-129.49667397 453.90151354 -134.4645579 456.21197944 -139.40625 458.58203125 C-140.60495728 459.1553418 -140.60495728 459.1553418 -141.82788086 459.74023438 C-143.2608457 460.42783206 -144.6915708 461.12012869 -146.11938477 461.81835938 C-148.9562562 463.17868239 -150.80781157 464 -154 464 C-153.33015904 457.20039533 -152.26364828 450.55591199 -150.99389648 443.84448242 C-150.69108513 442.22214439 -150.69108513 442.22214439 -150.38215637 440.56703186 C-149.71485223 436.99593253 -149.04294151 433.42571581 -148.37109375 429.85546875 C-147.89812344 427.32821014 -147.4254785 424.80089061 -146.95314026 422.27351379 C-145.83173862 416.27674214 -144.70757574 410.28049466 -143.58189875 404.28452426 C-142.2108153 396.98107047 -140.84242447 389.67711341 -139.47460938 382.37304688 C-139.23238962 381.0796747 -138.99016987 379.78630253 -138.74061012 378.45373726 C-136.8288974 368.24293055 -134.92158026 358.03130699 -133.01831627 347.81892204 C-131.91718331 341.91112806 -130.81371335 336.00379908 -129.70343018 330.09771729 C-128.71460172 324.83676586 -127.73356342 319.5744259 -126.75898933 314.31081581 C-126.40509527 312.40715436 -126.04829777 310.50403006 -125.68841362 308.60149193 C-125.20125739 306.02386585 -124.72441534 303.4445432 -124.25024414 300.86450195 C-124.10644632 300.11717867 -123.96264851 299.36985538 -123.81449318 298.59988594 C-122.91602482 293.72808803 -122.91602482 293.72808803 -124 289 C-125.45198471 287.12059729 -125.45198471 287.12059729 -127.31640625 285.35546875 C-127.99896484 284.67806641 -128.68152344 284.00066406 -129.38476562 283.30273438 C-130.10341797 282.60470703 -130.82207031 281.90667969 -131.5625 281.1875 C-132.25408203 280.50107422 -132.94566406 279.81464844 -133.65820312 279.10742188 C-136.97414886 275.84092174 -140.33697185 272.67390644 -143.87109375 269.64453125 C-149.98887123 264.35918622 -155.55074143 258.49157218 -161.22265625 252.73828125 C-165.05486605 248.87260237 -168.86411087 245.04206076 -173 241.5 C-179.09140264 236.28319713 -184.59653402 230.4451226 -190.22265625 224.73828125 C-194.04451783 220.88304096 -197.84191852 217.06132988 -201.96875 213.53125 C-207.78604904 208.54919511 -213.06330896 202.99289125 -218.43652344 197.54296875 C-223.56244324 192.35056945 -228.71123953 187.25347835 -234.2578125 182.50634766 C-236.77608631 180.32897246 -239.13669314 178.03257147 -241.5 175.6875 C-242.3559375 174.84574219 -243.211875 174.00398437 -244.09375 173.13671875 C-246 171 -246 171 -246 169 C-224.06921764 166.51865244 -202.13800756 164.04111751 -180.20628166 161.56812286 C-170.02305778 160.41978491 -159.83997768 159.27019896 -149.65722656 158.11767578 C-140.78213197 157.11316144 -131.90677673 156.11098784 -123.03110039 155.11162615 C-118.33136793 154.58237435 -113.63177449 154.05195 -108.9324913 153.51872253 C-104.50881261 153.01680534 -100.08479194 152.51802022 -95.66049004 152.02162743 C-94.03742033 151.83896665 -92.41447852 151.65516528 -90.79167747 151.47013283 C-88.57392669 151.21743761 -86.35574979 150.96887244 -84.13742065 150.72131348 C-82.8966873 150.58120094 -81.65595394 150.44108841 -80.3776226 150.29673004 C-77.22946695 150.02015907 -74.15803492 149.94425381 -71 150 C-70.72559082 149.12899658 -70.45118164 148.25799316 -70.16845703 147.3605957 C-69.06250536 144.17977147 -67.77838195 141.25572359 -66.3046875 138.23046875 C-65.76175049 137.1110791 -65.21881348 135.99168945 -64.65942383 134.83837891 C-64.06465371 133.62140078 -63.46984463 132.4044417 -62.875 131.1875 C-62.25313693 129.90821648 -61.63164431 128.62875281 -61.01049805 127.34912109 C-59.69266503 124.63562214 -58.37278784 121.92313181 -57.05126953 119.21142578 C-53.97094433 112.88969701 -50.90342091 106.56175701 -47.83529663 100.23410034 C-46.80763033 98.1149583 -45.77944422 95.99606899 -44.7512207 93.87719727 C-40.56708731 85.25192787 -36.41362174 76.61273925 -32.29223633 67.95727539 C-29.53368837 62.17529762 -26.7431628 56.40964631 -23.93359375 50.65234375 C-15.74147591 33.86021935 -7.65530419 17.0457433 0 0 Z " fill="#000000" transform="translate(246,18)"/>
</svg>
